<?xml version="1.0" encoding="UTF-8" ?>
<!DOCTYPE svg PUBLIC "-//W3C//DTD SVG 1.1//EN" "http://www.w3.org/Graphics/SVG/1.1/DTD/svg11.dtd">
<svg width="431pt" height="431pt" viewBox="0 0 431 431" version="1.1" xmlns="http://www.w3.org/2000/svg">
<g id="#4f4f4fff">
<path fill="#4f4f4f" opacity="1.00" d=" M 156.36 32.29 C 164.29 31.41 172.26 32.80 180.12 33.80 C 204.39 38.58 227.77 47.27 250.06 57.92 C 261.72 63.94 273.13 70.50 283.82 78.14 C 297.97 88.31 312.31 98.20 326.05 108.92 C 329.52 111.80 332.97 115.41 333.81 120.00 C 333.28 124.14 330.73 128.32 326.64 129.72 C 322.90 130.87 318.75 129.79 315.88 127.17 C 311.95 123.73 307.95 120.35 303.66 117.37 C 287.23 105.71 271.55 92.84 253.77 83.24 C 240.35 75.85 226.52 69.16 212.11 63.93 C 199.13 59.17 185.91 54.38 172.04 53.12 C 163.51 52.94 154.80 52.34 146.44 54.47 C 132.81 57.67 119.82 64.04 109.34 73.37 C 96.76 86.28 87.26 102.04 81.00 118.92 C 73.99 139.71 70.63 161.52 68.39 183.28 C 67.69 189.39 68.27 195.55 67.70 201.67 C 67.33 205.60 67.24 209.57 67.62 213.51 C 68.66 224.34 67.18 235.27 68.76 246.08 C 68.97 250.95 70.26 255.96 68.98 260.78 C 66.78 266.99 58.16 269.12 53.22 264.82 C 49.50 261.33 49.28 255.80 48.69 251.06 C 47.55 243.06 48.23 234.97 47.74 226.93 C 44.89 193.98 49.52 160.88 56.77 128.76 C 62.85 103.37 75.50 79.52 93.43 60.51 C 110.32 44.20 132.94 34.09 156.36 32.29 Z" />
<path fill="#4f4f4f" opacity="1.00" d=" M 165.36 66.38 C 182.02 64.85 199.21 65.29 215.18 70.76 C 227.24 74.70 238.12 81.38 248.66 88.30 C 266.09 99.04 281.72 112.41 297.10 125.85 C 309.23 137.10 321.56 148.14 334.27 158.74 C 337.76 161.92 342.03 164.75 343.71 169.38 C 345.16 174.22 342.23 179.80 337.61 181.68 C 333.34 183.13 328.53 181.78 325.30 178.74 C 309.00 164.01 291.89 150.17 276.13 134.84 C 264.77 125.15 253.54 115.20 240.99 107.04 C 228.60 99.05 215.85 90.85 201.18 87.86 C 191.96 85.45 182.39 85.98 172.96 85.99 C 165.39 86.14 157.98 87.95 150.67 89.76 C 136.96 93.37 124.90 102.14 116.48 113.45 C 108.52 123.50 104.13 135.89 101.36 148.28 C 99.00 161.41 98.00 174.75 96.96 188.04 C 95.21 204.97 96.33 222.01 95.96 239.00 C 96.08 252.37 98.29 265.65 98.07 279.05 C 98.91 288.89 99.58 298.83 98.70 308.70 C 98.01 314.94 91.44 319.57 85.36 317.73 C 81.46 316.10 78.15 312.36 78.07 307.97 C 77.76 302.42 78.08 296.84 77.46 291.31 C 76.34 281.61 77.63 271.83 76.62 262.13 C 75.71 254.76 76.18 247.30 75.19 239.93 C 74.69 227.96 75.19 215.98 74.97 204.00 C 74.70 196.62 75.99 189.32 76.12 181.96 C 77.52 161.70 80.97 141.38 88.40 122.41 C 92.41 113.24 97.08 104.25 103.34 96.41 C 111.36 87.19 121.03 79.11 132.37 74.35 C 142.81 69.77 154.19 68.14 165.36 66.38 Z" />
<path fill="#4f4f4f" opacity="1.00" d=" M 130.32 108.29 C 146.90 94.28 169.92 88.80 191.14 92.81 C 198.07 94.25 204.94 96.04 211.63 98.39 C 234.26 106.67 253.67 121.60 271.26 137.75 C 280.81 147.19 291.41 155.62 299.88 166.12 C 303.55 170.75 307.76 174.94 311.22 179.74 C 315.31 184.84 312.27 193.59 305.87 195.04 C 303.05 196.24 300.10 195.13 297.28 194.59 C 296.84 197.54 297.34 200.90 295.40 203.40 C 292.75 207.09 287.50 209.30 283.33 206.74 C 275.60 202.49 269.03 196.45 262.51 190.56 C 252.95 182.44 244.07 173.55 234.06 165.97 C 224.78 159.16 215.50 152.30 205.51 146.55 C 198.83 143.10 191.51 140.60 183.98 140.04 C 174.41 140.01 164.22 143.42 158.31 151.32 C 152.25 159.41 149.92 169.59 148.48 179.41 C 146.90 195.87 146.18 212.50 147.83 228.98 C 148.18 239.07 149.92 249.03 151.14 259.03 C 153.61 276.22 156.78 293.30 160.99 310.15 C 161.86 314.10 163.16 318.84 160.32 322.33 C 156.23 328.42 145.11 327.35 142.78 320.18 C 139.71 311.58 138.50 302.47 136.39 293.62 C 132.44 276.26 130.27 258.58 128.18 240.93 C 126.91 225.39 125.13 209.80 126.26 194.19 C 127.11 186.37 126.89 178.43 128.75 170.73 C 131.63 155.99 137.09 140.79 148.84 130.78 C 163.43 119.93 183.30 116.66 200.58 122.40 C 212.08 126.21 222.24 133.02 232.23 139.70 C 245.61 148.75 258.35 158.81 269.84 170.18 C 276.20 175.53 282.21 181.40 289.28 185.83 C 283.16 177.38 275.57 170.13 268.21 162.79 C 263.08 157.58 257.47 152.89 251.98 148.08 C 233.71 131.31 211.71 117.40 186.98 113.01 C 166.59 108.90 144.36 118.73 133.25 136.21 C 125.16 147.76 121.75 161.89 120.66 175.78 C 119.56 183.51 119.87 191.33 120.77 199.07 C 122.14 223.00 124.71 246.90 129.53 270.40 C 132.70 287.60 135.97 304.81 137.73 322.22 C 138.23 328.39 137.83 334.59 138.49 340.76 C 138.90 344.22 138.25 348.10 135.34 350.37 C 131.36 354.54 124.03 353.88 120.33 349.71 C 118.64 346.78 118.33 343.30 118.07 340.00 C 118.33 312.91 111.45 286.51 106.99 259.96 C 103.74 240.11 101.47 220.07 100.76 199.96 C 98.55 178.35 100.29 155.67 109.72 135.82 C 114.49 125.29 121.68 115.94 130.32 108.29 Z" />
<path fill="#4f4f4f" opacity="1.00" d=" M 186.36 147.26 C 192.32 145.79 199.30 150.61 199.07 157.01 C 199.40 162.17 195.04 165.51 191.77 168.77 C 180.98 179.39 174.12 193.57 171.51 208.41 C 170.36 217.87 169.45 227.45 170.29 236.98 C 171.11 244.46 171.13 252.02 172.64 259.42 C 173.68 265.49 176.24 271.58 174.96 277.81 C 174.00 280.33 171.89 282.32 169.60 283.66 C 165.48 284.82 160.35 283.85 157.72 280.23 C 155.40 277.26 154.89 273.41 154.03 269.85 C 149.85 251.26 148.96 232.02 150.81 213.08 C 151.26 193.38 159.23 174.07 172.43 159.49 C 176.62 155.01 180.46 149.56 186.36 147.26 Z" />
<path fill="#4f4f4f" opacity="1.00" d=" M 215.38 163.28 C 221.56 161.60 228.39 167.54 227.23 174.00 C 227.29 179.23 222.35 182.09 218.53 184.60 C 208.66 190.91 199.76 199.77 196.31 211.24 C 191.88 226.15 194.00 241.92 195.92 257.06 C 198.58 276.73 197.06 297.17 189.83 315.76 C 183.62 332.66 172.99 347.65 160.37 360.36 C 158.11 362.65 155.38 364.95 151.99 364.99 C 144.88 364.93 139.17 355.63 143.59 349.60 C 147.35 343.83 152.73 339.34 156.71 333.72 C 169.64 317.41 176.17 296.67 176.98 276.02 C 176.78 261.91 173.77 248.04 173.12 233.95 C 173.76 217.69 175.23 200.11 185.91 186.94 C 194.26 177.53 203.53 168.11 215.38 163.28 Z" />
<path fill="#4f4f4f" opacity="1.00" d=" M 228.32 187.31 C 237.34 185.61 246.51 188.94 253.74 194.24 C 260.72 199.49 268.02 204.70 273.03 211.98 C 274.85 214.60 273.92 217.99 272.81 220.70 C 270.86 225.57 264.27 228.56 259.65 225.45 C 250.83 220.10 244.76 210.63 234.74 207.15 C 231.27 206.11 228.78 209.54 227.15 212.07 C 222.89 219.98 221.97 229.15 221.16 237.96 C 220.40 245.91 222.08 254.08 219.98 261.89 C 218.85 266.99 212.66 268.72 208.09 268.06 C 203.93 267.46 200.86 263.73 200.36 259.66 C 199.33 252.48 200.13 245.18 200.93 238.01 C 202.04 228.04 202.42 217.76 206.34 208.37 C 208.87 201.54 213.74 195.87 219.24 191.23 C 221.81 189.07 225.03 187.85 228.32 187.31 Z" />
<path fill="#4f4f4f" opacity="1.00" d=" M 353.38 189.30 C 360.44 187.28 368.31 195.28 365.31 202.24 C 363.63 207.26 358.24 209.30 353.60 210.64 C 336.18 215.34 320.02 223.62 304.30 232.31 C 299.94 234.46 297.26 238.96 292.62 240.64 C 282.27 244.86 273.43 251.89 264.48 258.43 C 260.19 260.60 256.61 263.82 252.76 266.63 C 246.45 270.57 240.76 275.37 234.87 279.87 C 231.38 282.42 229.49 286.49 226.11 289.15 C 221.17 293.26 215.53 297.25 209.03 298.11 C 202.74 298.60 197.81 292.16 199.10 286.21 C 200.70 279.95 205.80 275.57 210.22 271.22 C 212.10 269.29 214.87 268.94 217.16 267.73 C 219.31 266.05 220.70 263.47 223.25 262.29 C 227.81 260.03 231.66 256.70 235.67 253.63 C 243.74 247.24 252.39 241.67 260.82 235.78 C 263.71 233.96 264.88 230.53 267.42 228.37 C 270.45 227.39 273.79 227.29 276.53 225.51 C 285.12 220.05 293.83 214.73 302.65 209.64 C 318.94 201.46 335.69 193.88 353.38 189.30 Z" />
<path fill="#4f4f4f" opacity="1.00" d=" M 354.32 222.41 C 359.53 221.82 364.42 225.41 365.50 230.53 C 366.50 235.68 363.09 242.01 357.48 242.52 C 347.20 244.12 336.78 245.83 327.27 250.26 C 306.19 259.05 287.48 272.50 269.87 286.86 C 260.15 294.75 250.83 303.13 241.74 311.74 C 229.43 324.43 216.28 336.34 204.74 349.75 C 195.88 359.58 187.25 369.63 179.00 379.98 C 176.28 383.59 171.68 387.02 166.95 385.25 C 162.22 384.37 159.12 379.74 159.14 375.11 C 159.56 371.57 161.47 368.41 163.71 365.72 C 183.86 341.32 204.85 317.56 227.89 295.83 C 248.50 278.37 268.47 259.95 291.17 245.17 C 310.55 233.88 331.71 224.31 354.32 222.41 Z" />
<path fill="#4f4f4f" opacity="1.00" d=" M 356.34 249.30 C 360.14 248.58 364.85 248.15 367.78 251.22 C 370.45 254.35 372.04 259.06 370.01 262.93 C 368.28 266.69 364.13 268.28 360.46 269.48 C 341.25 274.90 324.46 286.12 308.02 297.05 C 281.90 315.19 256.97 335.12 234.03 357.15 C 223.80 366.20 214.42 376.31 206.48 387.44 C 203.42 392.28 198.42 397.16 192.17 395.98 C 185.31 394.68 182.82 385.86 186.37 380.35 C 197.68 361.90 213.82 347.14 229.72 332.73 C 237.75 325.03 246.60 318.26 254.98 310.94 C 271.17 297.20 288.77 285.28 306.18 273.17 C 321.74 263.09 338.23 253.80 356.34 249.30 Z" />
<path fill="#4f4f4f" opacity="1.00" d=" M 348.43 284.45 C 351.92 283.44 356.36 283.16 359.21 285.82 C 361.70 288.57 363.76 292.50 362.47 296.28 C 361.52 300.91 356.96 303.25 353.05 305.06 C 327.32 316.36 303.19 331.45 282.26 350.25 C 271.42 360.77 261.78 372.42 251.41 383.40 C 247.14 387.79 244.54 394.66 238.09 396.28 C 231.36 398.72 224.16 390.92 226.24 384.33 C 227.84 378.35 232.43 373.89 236.27 369.27 C 245.49 359.16 254.39 348.75 264.24 339.24 C 288.14 315.35 317.84 298.27 348.43 284.45 Z" />
<path fill="#4f4f4f" opacity="1.00" d=" M 334.42 323.43 C 337.91 322.45 342.29 322.20 345.10 324.91 C 349.27 328.88 349.42 337.03 344.26 340.25 C 340.55 342.68 336.41 344.34 332.69 346.75 C 317.63 356.28 304.65 368.58 291.34 380.33 C 286.44 384.78 282.10 389.81 277.15 394.20 C 273.21 397.80 266.26 398.74 262.39 394.57 C 258.64 390.27 259.00 383.13 263.26 379.29 C 271.75 370.40 281.49 362.81 290.36 354.32 C 303.96 342.64 317.65 330.34 334.42 323.43 Z" />
</g>
</svg>
